<mxfile host="app.diagrams.net" modified="2022-10-31T09:35:12.997Z" agent="5.0 (Macintosh)" etag="S8ZnF6VqQZXQExFTCvNt" version="20.5.1" type="github">
  <diagram id="n5I5L5vB3KYrBfXEJfVW" name="Sida-2">
    <mxGraphModel dx="1858" dy="889" grid="1" gridSize="10" guides="1" tooltips="1" connect="1" arrows="1" fold="1" page="1" pageScale="1" pageWidth="827" pageHeight="1169" math="0" shadow="0">
      <root>
        <mxCell id="0" />
        <mxCell id="1" parent="0" />
        <mxCell id="oFcCAkPt8Aup1vKV2DPM-2" value="" style="rounded=0;whiteSpace=wrap;html=1;" vertex="1" parent="1">
          <mxGeometry x="40" y="40" width="760" height="560" as="geometry" />
        </mxCell>
        <mxCell id="oFcCAkPt8Aup1vKV2DPM-3" value="" style="rounded=0;whiteSpace=wrap;html=1;" vertex="1" parent="1">
          <mxGeometry x="40" y="40" width="760" height="60" as="geometry" />
        </mxCell>
        <mxCell id="oFcCAkPt8Aup1vKV2DPM-4" value="" style="rounded=1;whiteSpace=wrap;html=1;" vertex="1" parent="1">
          <mxGeometry x="154" y="55" width="570" height="30" as="geometry" />
        </mxCell>
        <mxCell id="oFcCAkPt8Aup1vKV2DPM-9" value="" style="ellipse;whiteSpace=wrap;html=1;" vertex="1" parent="1">
          <mxGeometry x="50" y="55" width="15" height="15" as="geometry" />
        </mxCell>
        <mxCell id="oFcCAkPt8Aup1vKV2DPM-10" value="" style="ellipse;whiteSpace=wrap;html=1;" vertex="1" parent="1">
          <mxGeometry x="80" y="55" width="15" height="15" as="geometry" />
        </mxCell>
        <mxCell id="oFcCAkPt8Aup1vKV2DPM-11" value="" style="ellipse;whiteSpace=wrap;html=1;" vertex="1" parent="1">
          <mxGeometry x="110" y="55" width="15" height="15" as="geometry" />
        </mxCell>
        <mxCell id="oFcCAkPt8Aup1vKV2DPM-14" value="" style="rounded=0;whiteSpace=wrap;html=1;" vertex="1" parent="1">
          <mxGeometry x="154" y="140" width="546" height="400" as="geometry" />
        </mxCell>
        <mxCell id="oFcCAkPt8Aup1vKV2DPM-17" value="" style="rounded=0;whiteSpace=wrap;html=1;" vertex="1" parent="1">
          <mxGeometry x="40" y="640" width="760" height="560" as="geometry" />
        </mxCell>
        <mxCell id="oFcCAkPt8Aup1vKV2DPM-18" value="" style="rounded=0;whiteSpace=wrap;html=1;" vertex="1" parent="1">
          <mxGeometry x="40" y="640" width="760" height="60" as="geometry" />
        </mxCell>
        <mxCell id="oFcCAkPt8Aup1vKV2DPM-19" value="" style="rounded=1;whiteSpace=wrap;html=1;" vertex="1" parent="1">
          <mxGeometry x="154" y="655" width="570" height="30" as="geometry" />
        </mxCell>
        <mxCell id="oFcCAkPt8Aup1vKV2DPM-20" value="" style="ellipse;whiteSpace=wrap;html=1;" vertex="1" parent="1">
          <mxGeometry x="50" y="655" width="15" height="15" as="geometry" />
        </mxCell>
        <mxCell id="oFcCAkPt8Aup1vKV2DPM-21" value="" style="ellipse;whiteSpace=wrap;html=1;" vertex="1" parent="1">
          <mxGeometry x="80" y="655" width="15" height="15" as="geometry" />
        </mxCell>
        <mxCell id="oFcCAkPt8Aup1vKV2DPM-22" value="" style="ellipse;whiteSpace=wrap;html=1;" vertex="1" parent="1">
          <mxGeometry x="110" y="655" width="15" height="15" as="geometry" />
        </mxCell>
        <mxCell id="oFcCAkPt8Aup1vKV2DPM-23" value="" style="rounded=0;whiteSpace=wrap;html=1;" vertex="1" parent="1">
          <mxGeometry x="154" y="740" width="546" height="400" as="geometry" />
        </mxCell>
        <mxCell id="oFcCAkPt8Aup1vKV2DPM-24" value="" style="rounded=0;whiteSpace=wrap;html=1;" vertex="1" parent="1">
          <mxGeometry x="40" y="1240" width="760" height="560" as="geometry" />
        </mxCell>
        <mxCell id="oFcCAkPt8Aup1vKV2DPM-25" value="" style="rounded=0;whiteSpace=wrap;html=1;" vertex="1" parent="1">
          <mxGeometry x="40" y="1240" width="760" height="60" as="geometry" />
        </mxCell>
        <mxCell id="oFcCAkPt8Aup1vKV2DPM-26" value="" style="rounded=1;whiteSpace=wrap;html=1;" vertex="1" parent="1">
          <mxGeometry x="154" y="1255" width="570" height="30" as="geometry" />
        </mxCell>
        <mxCell id="oFcCAkPt8Aup1vKV2DPM-27" value="" style="ellipse;whiteSpace=wrap;html=1;" vertex="1" parent="1">
          <mxGeometry x="50" y="1255" width="15" height="15" as="geometry" />
        </mxCell>
        <mxCell id="oFcCAkPt8Aup1vKV2DPM-28" value="" style="ellipse;whiteSpace=wrap;html=1;" vertex="1" parent="1">
          <mxGeometry x="80" y="1255" width="15" height="15" as="geometry" />
        </mxCell>
        <mxCell id="oFcCAkPt8Aup1vKV2DPM-29" value="" style="ellipse;whiteSpace=wrap;html=1;" vertex="1" parent="1">
          <mxGeometry x="110" y="1255" width="15" height="15" as="geometry" />
        </mxCell>
        <mxCell id="oFcCAkPt8Aup1vKV2DPM-30" value="" style="rounded=0;whiteSpace=wrap;html=1;" vertex="1" parent="1">
          <mxGeometry x="154" y="1340" width="546" height="400" as="geometry" />
        </mxCell>
        <mxCell id="oFcCAkPt8Aup1vKV2DPM-38" value="" style="rounded=0;whiteSpace=wrap;html=1;" vertex="1" parent="1">
          <mxGeometry x="40" y="1880" width="760" height="560" as="geometry" />
        </mxCell>
        <mxCell id="oFcCAkPt8Aup1vKV2DPM-39" value="" style="rounded=0;whiteSpace=wrap;html=1;" vertex="1" parent="1">
          <mxGeometry x="40" y="1880" width="760" height="60" as="geometry" />
        </mxCell>
        <mxCell id="oFcCAkPt8Aup1vKV2DPM-40" value="" style="rounded=1;whiteSpace=wrap;html=1;" vertex="1" parent="1">
          <mxGeometry x="154" y="1895" width="570" height="30" as="geometry" />
        </mxCell>
        <mxCell id="oFcCAkPt8Aup1vKV2DPM-41" value="" style="ellipse;whiteSpace=wrap;html=1;" vertex="1" parent="1">
          <mxGeometry x="50" y="1895" width="15" height="15" as="geometry" />
        </mxCell>
        <mxCell id="oFcCAkPt8Aup1vKV2DPM-42" value="" style="ellipse;whiteSpace=wrap;html=1;" vertex="1" parent="1">
          <mxGeometry x="80" y="1895" width="15" height="15" as="geometry" />
        </mxCell>
        <mxCell id="oFcCAkPt8Aup1vKV2DPM-43" value="" style="ellipse;whiteSpace=wrap;html=1;" vertex="1" parent="1">
          <mxGeometry x="110" y="1895" width="15" height="15" as="geometry" />
        </mxCell>
        <mxCell id="oFcCAkPt8Aup1vKV2DPM-44" value="" style="rounded=0;whiteSpace=wrap;html=1;" vertex="1" parent="1">
          <mxGeometry x="154" y="1980" width="546" height="400" as="geometry" />
        </mxCell>
        <mxCell id="oFcCAkPt8Aup1vKV2DPM-45" value="" style="rounded=0;whiteSpace=wrap;html=1;" vertex="1" parent="1">
          <mxGeometry x="40" y="2480" width="760" height="560" as="geometry" />
        </mxCell>
        <mxCell id="oFcCAkPt8Aup1vKV2DPM-46" value="" style="rounded=0;whiteSpace=wrap;html=1;" vertex="1" parent="1">
          <mxGeometry x="40" y="2480" width="760" height="60" as="geometry" />
        </mxCell>
        <mxCell id="oFcCAkPt8Aup1vKV2DPM-47" value="" style="rounded=1;whiteSpace=wrap;html=1;" vertex="1" parent="1">
          <mxGeometry x="154" y="2495" width="570" height="30" as="geometry" />
        </mxCell>
        <mxCell id="oFcCAkPt8Aup1vKV2DPM-48" value="" style="ellipse;whiteSpace=wrap;html=1;" vertex="1" parent="1">
          <mxGeometry x="50" y="2495" width="15" height="15" as="geometry" />
        </mxCell>
        <mxCell id="oFcCAkPt8Aup1vKV2DPM-49" value="" style="ellipse;whiteSpace=wrap;html=1;" vertex="1" parent="1">
          <mxGeometry x="80" y="2495" width="15" height="15" as="geometry" />
        </mxCell>
        <mxCell id="oFcCAkPt8Aup1vKV2DPM-50" value="" style="ellipse;whiteSpace=wrap;html=1;" vertex="1" parent="1">
          <mxGeometry x="110" y="2495" width="15" height="15" as="geometry" />
        </mxCell>
        <mxCell id="oFcCAkPt8Aup1vKV2DPM-51" value="" style="rounded=0;whiteSpace=wrap;html=1;" vertex="1" parent="1">
          <mxGeometry x="154" y="2580" width="546" height="400" as="geometry" />
        </mxCell>
        <mxCell id="oFcCAkPt8Aup1vKV2DPM-52" value="" style="ellipse;whiteSpace=wrap;html=1;aspect=fixed;" vertex="1" parent="1">
          <mxGeometry x="387" y="300" width="80" height="80" as="geometry" />
        </mxCell>
        <mxCell id="oFcCAkPt8Aup1vKV2DPM-53" value="" style="triangle;whiteSpace=wrap;html=1;" vertex="1" parent="1">
          <mxGeometry x="414" y="320" width="30" height="40" as="geometry" />
        </mxCell>
      </root>
    </mxGraphModel>
  </diagram>
</mxfile>
